<svg width="20" height="17">
  <path fill="#000" d="M18.747 3.46h-3.275c-.016-.024-.032-.05-.056-.07L11.672.25a.3.3 0 10-.385.459l3.28 2.751H5.213L8.493.708A.3.3 0 108.108.25L4.365 3.39c-.024.02-.04.045-.056.07H1.034C.464 3.46 0 3.924 0 4.494v1.917c0 .57.464 1.034 1.034 1.034h.587l.802 8.044c.06.59.551 1.036 1.144 1.036h12.647c.593 0 1.085-.446 1.144-1.036l.802-8.043h.587c.57 0 1.034-.464 1.034-1.034V4.495c0-.57-.464-1.035-1.034-1.035zM16.76 15.43a.549.549 0 01-.547.495H3.567a.55.55 0 01-.548-.496l-.796-7.984h15.334l-.796 7.984zm2.42-9.019c0 .24-.194.435-.434.435H1.034a.435.435 0 01-.435-.435V4.494c0-.24.195-.434.435-.434h17.713c.24 0 .435.195.435.434v1.917z"/><path d="M5.547 14.075a.3.3 0 00.3-.3V9.429a.3.3 0 10-.6 0v4.346a.3.3 0 00.3.3zM8.443 14.075a.3.3 0 00.3-.3V9.429a.3.3 0 10-.6 0v4.346a.3.3 0 00.3.3zM11.337 14.075a.3.3 0 00.3-.3V9.429a.3.3 0 10-.6 0v4.346a.3.3 0 00.3.3zM14.232 14.075a.3.3 0 00.3-.3V9.429a.3.3 0 10-.6 0v4.346a.3.3 0 00.3.3z" />
</svg>